<svg xmlns="http://www.w3.org/2000/svg" viewBox="0 0 1024 1024" width="1024" height="1024">
  <!-- Background -->
  <rect width="1024" height="1024" fill="#f8f9fa"/>
  
  <!-- Open Book -->
  <path d="M150 620 C150 620, 200 580, 300 580 C400 580, 450 620, 512 620 C574 620, 624 580, 724 580 C824 580, 874 620, 874 620 L874 720 C874 720, 824 680, 724 680 C624 680, 574 720, 512 720 C450 720, 400 680, 300 680 C200 680, 150 720, 150 720 Z" fill="#f97316"/>
  
  <!-- Book Pages -->
  <path d="M150 600 C150 600, 200 560, 300 560 C400 560, 450 600, 512 600 L512 700 C450 700, 400 660, 300 660 C200 660, 150 700, 150 700 Z" fill="#e5e7eb"/>
  <path d="M512 600 C574 600, 624 560, 724 560 C824 560, 874 600, 874 600 L874 700 C874 700, 824 660, 724 660 C624 660, 574 700, 512 700 Z" fill="#d1d5db"/>
  
  <!-- Additional page lines -->
  <path d="M150 580 C150 580, 200 540, 300 540 C400 540, 450 580, 512 580 L512 680 C450 680, 400 640, 300 640 C200 640, 150 680, 150 680 Z" fill="#f3f4f6"/>
  <path d="M512 580 C574 580, 624 540, 724 540 C824 540, 874 580, 874 580 L874 680 C874 680, 824 640, 724 640 C624 640, 574 680, 512 680 Z" fill="#e5e7eb"/>
  
  <!-- People figures -->
  <!-- Center figure -->
  <g transform="translate(512, 400)">
    <!-- Head -->
    <circle cx="0" cy="-60" r="25" fill="#3b82f6"/>
    <!-- Body -->
    <path d="M-30 -20 L-50 60 L-20 60 L-10 20 L10 20 L20 60 L50 60 L30 -20 Z" fill="#3b82f6"/>
    <!-- Arms -->
    <path d="M-30 -10 L-70 -40 L-60 -50 L-20 -20 Z" fill="#3b82f6"/>
    <path d="M30 -10 L70 -40 L60 -50 L20 -20 Z" fill="#3b82f6"/>
  </g>
  
  <!-- Left figure -->
  <g transform="translate(380, 450)">
    <!-- Head -->
    <circle cx="0" cy="-40" r="20" fill="#3b82f6"/>
    <!-- Body -->
    <path d="M-25 -10 L-40 50 L-15 50 L-8 15 L8 15 L15 50 L40 50 L25 -10 Z" fill="#3b82f6"/>
    <!-- Arms -->
    <path d="M-25 -5 L-55 -30 L-45 -40 L-15 -15 Z" fill="#3b82f6"/>
    <path d="M25 -5 L55 -30 L45 -40 L15 -15 Z" fill="#3b82f6"/>
  </g>
  
  <!-- Right figure -->
  <g transform="translate(644, 450)">
    <!-- Head -->
    <circle cx="0" cy="-40" r="20" fill="#3b82f6"/>
    <!-- Body -->
    <path d="M-25 -10 L-40 50 L-15 50 L-8 15 L8 15 L15 50 L40 50 L25 -10 Z" fill="#3b82f6"/>
    <!-- Arms -->
    <path d="M-25 -5 L-55 -30 L-45 -40 L-15 -15 Z" fill="#3b82f6"/>
    <path d="M25 -5 L55 -30 L45 -40 L15 -15 Z" fill="#3b82f6"/>
  </g>
  
  <!-- Stars -->
  <g fill="#f97316">
    <!-- Top star -->
    <path d="M512 280 L520 300 L542 300 L525 315 L532 337 L512 322 L492 337 L499 315 L482 300 L504 300 Z"/>
    <!-- Left star -->
    <path d="M340 380 L348 400 L370 400 L353 415 L360 437 L340 422 L320 437 L327 415 L310 400 L332 400 Z"/>
    <!-- Right star -->
    <path d="M684 380 L692 400 L714 400 L697 415 L704 437 L684 422 L664 437 L671 415 L654 400 L676 400 Z"/>
  </g>
</svg>